<svg xmlns="http://www.w3.org/2000/svg" viewBox="0 0 1200 1200"><defs><style>.cls-1{fill:#f79c1d;}.cls-2{fill:#7fa99b;}.cls-3{fill:#f6e79c;}.cls-4{fill:#9c2c2c;}</style></defs><g id="Principal_Naranja" data-name="Principal Naranja"><rect class="cls-1" x="600" y="600" width="600" height="600"/></g><g id="Principal_Verde" data-name="Principal Verde"><rect class="cls-2" y="600" width="600" height="600"/></g><g id="Principal_Amarillo" data-name="Principal Amarillo"><rect class="cls-3" x="600" width="600" height="600"/></g><g id="Principal_Rojo" data-name="Principal Rojo"><rect class="cls-4" width="600" height="600"/></g><g id="Rojo"><rect class="cls-4" x="1000" y="1000" width="150" height="150" transform="translate(1750 1750) rotate(180)"/><rect class="cls-4" x="1150" y="1150" width="150" height="150" transform="translate(2050 2050) rotate(180)"/><rect class="cls-4" x="1150" y="1000" width="150" height="150" transform="translate(2050 1750) rotate(180)"/><rect class="cls-4" x="1300" y="1000" width="150" height="150" transform="translate(2350 1750) rotate(180)"/><rect class="cls-4" x="1000" y="1150" width="150" height="150" transform="translate(1750 2050) rotate(180)"/><rect class="cls-4" x="1000" y="1300" width="150" height="150" transform="translate(1750 2350) rotate(180)"/></g><g id="Amarillo"><rect class="cls-3" x="450" y="600" width="150" height="150"/><rect class="cls-3" x="300" y="750" width="150" height="150"/><rect class="cls-3" x="300" y="600" width="150" height="150"/><rect class="cls-3" x="150" y="600" width="150" height="150"/><rect class="cls-3" x="450" y="750" width="150" height="150"/><rect class="cls-3" x="450" y="900" width="150" height="150"/></g><g id="Verde"><rect class="cls-2" x="1000" y="850" width="150" height="150" transform="translate(1750 1450) rotate(-180)"/><rect class="cls-2" x="1150" y="700" width="150" height="150" transform="translate(2050 1150) rotate(-180)"/><rect class="cls-2" x="1150" y="850" width="150" height="150" transform="translate(2050 1450) rotate(-180)"/><rect class="cls-2" x="1300" y="850" width="150" height="150" transform="translate(2350 1450) rotate(-180)"/><rect class="cls-2" x="1000" y="700" width="150" height="150" transform="translate(1750 1150) rotate(-180)"/><rect class="cls-2" x="1000" y="550" width="150" height="150" transform="translate(1750 850) rotate(-180)"/></g><g id="Naranja"><rect class="cls-1" x="450" y="450" width="150" height="150"/><rect class="cls-1" x="300" y="300" width="150" height="150"/><rect class="cls-1" x="300" y="450" width="150" height="150"/><rect class="cls-1" x="150" y="450" width="150" height="150"/><rect class="cls-1" x="450" y="300" width="150" height="150"/><rect class="cls-1" x="450" y="150" width="150" height="150"/></g></svg>